<svg version="1.2" xmlns="http://www.w3.org/2000/svg" viewBox="0 0 800 800" width="800" height="800">
	<title>logo3</title>
	<style>
		.s0 { fill: #f9c970;stroke: #003461;stroke-width: 80 } 
		.s1 { fill: #003461 } 
		.s2 { fill: #f9c970 } 
		.s3 { fill: none;stroke: #003461;stroke-width: 20 } 
	</style>
	<path id="Shape 7" class="s0" d="m0 0h800v800h-800z"/>
	<path id="Shape 4" class="s1" d="m546 686.5c-53.5 23.1-109.4 12.3-125.2-24.2-15.9-36.5 14.5-84.7 68-107.9 53.4-23.1 109.4-12.3 125.2 24.2 15.8 36.5-14.6 84.7-68 107.9z"/>
	<path id="Shape 4 copy" class="s2" d="m532.3 654.9c-35.8 21.2-77.4 22.8-93 3.5-15.7-19.3 0.6-52 36.4-73.3 35.8-21.2 77.4-22.8 93-3.5 15.7 19.3-0.6 52-36.4 73.3z"/>
	<path id="Shape 5" class="s1" d="m245.5 427.5c-39.5-26-55.9-70.6-36.7-99.9 19.3-29.2 66.7-31.9 106.2-6 39.5 26 55.9 70.6 36.7 99.9-19.2 29.2-66.7 31.9-106.2 6z"/>
	<path id="Shape 5 copy" class="s2" d="m255.7 411.1c-28.9-19.3-39.2-49.5-23-67.5 16.2-18.1 52.6-17.1 81.6 2.3 28.9 19.3 39.2 49.5 23 67.5-16.2 18.1-52.6 17.1-81.6-2.3z"/>
	<path id="Shape 6" class="s1" d="m532.5 153.6c-24.8 30.2-66.1 45.4-92.4 34-26.3-11.3-27.5-44.8-2.7-74.9 24.8-30.1 66-45.3 92.3-34 26.3 11.3 27.6 44.8 2.8 74.9z"/>
	<path id="Shape 6 copy" class="s2" d="m507.1 145.8c-16.3 20.4-43.8 33.6-61.7 29.7-17.8-3.9-19.1-23.5-2.9-43.9 16.3-20.3 43.8-33.6 61.7-29.7 17.8 3.9 19.1 23.6 2.9 43.9z"/>
	<path id="Shape 3" class="s3" d="m423-51.1c-14 46-41 89-47 194-8 139.8 18 190 24 306 9.2 177.2-37 291-75 378"/>
</svg>