<?xml version="1.0" standalone="no"?>
<!DOCTYPE svg PUBLIC "-//W3C//DTD SVG 20010904//EN"
 "http://www.w3.org/TR/2001/REC-SVG-20010904/DTD/svg10.dtd">
<svg version="1.0" xmlns="http://www.w3.org/2000/svg"
 width="700.000000pt" height="700.000000pt" viewBox="0 0 700.000000 700.000000"
 preserveAspectRatio="xMidYMid meet">
<metadata>
Created by potrace 1.14, written by Peter Selinger 2001-2017
</metadata>
<g transform="translate(0.000000,700.000000) scale(0.100000,-0.100000)"
fill="#000000" stroke="none">
<path d="M3435 6966 c-22 -53 -84 -260 -115 -386 -129 -528 -165 -1266 -94
-1955 8 -82 35 -289 60 -460 58 -395 100 -723 114 -895 18 -214 24 -770 11
-985 -48 -779 -216 -1473 -545 -2248 l-17 -38 97 3 97 3 69 175 c209 529 346
1031 417 1530 100 700 91 1378 -30 2200 -102 702 -117 836 -128 1172 -17 527
19 1003 105 1393 28 124 112 411 151 512 4 10 -15 13 -86 13 l-92 0 -14 -34z"/>
<path d="M4345 6334 c-207 -52 -398 -171 -520 -327 -229 -288 -196 -585 73
-663 81 -24 233 -15 337 19 138 46 237 109 355 227 114 114 158 179 197 291
22 63 25 86 21 164 -5 106 -24 151 -89 209 -70 64 -118 80 -244 82 -60 2 -119
0 -130 -2z m110 -244 c87 -42 104 -142 45 -267 -50 -104 -185 -234 -307 -295
-107 -54 -184 -73 -267 -65 -141 13 -190 127 -119 278 53 113 154 216 290 296
121 71 274 94 358 53z"/>
<path d="M2101 4320 c-212 -56 -341 -218 -341 -428 0 -98 19 -175 71 -280 144
-294 477 -503 804 -505 170 -1 300 48 395 149 318 337 -57 971 -634 1073 -90
16 -212 12 -295 -9z m399 -236 c151 -34 336 -154 425 -275 118 -161 123 -325
12 -435 -76 -75 -141 -98 -282 -98 -122 -1 -198 15 -303 64 -125 58 -244 157
-312 260 -70 104 -87 247 -42 337 42 82 149 149 267 167 45 6 162 -3 235 -20z"/>
<path d="M4664 2250 c-430 -43 -840 -319 -978 -659 -29 -71 -31 -84 -31 -202
0 -124 0 -125 38 -201 64 -130 183 -221 352 -270 70 -20 102 -23 250 -23 142
1 185 4 260 23 377 95 694 341 811 632 119 292 -23 572 -336 668 -102 31 -246
44 -366 32z m117 -234 c89 -19 138 -46 187 -101 73 -83 79 -185 18 -312 -67
-139 -208 -271 -386 -362 -302 -155 -610 -159 -744 -10 -77 86 -84 187 -22
316 145 302 622 537 947 469z"/>
</g>
</svg>
