<?xml version="1.0" standalone="no"?>
<!DOCTYPE svg PUBLIC "-//W3C//DTD SVG 20010904//EN"
 "http://www.w3.org/TR/2001/REC-SVG-20010904/DTD/svg10.dtd">
<svg version="1.0" xmlns="http://www.w3.org/2000/svg"
 width="100.000000pt" height="100.000000pt" viewBox="0 0 100.000000 100.000000"
 preserveAspectRatio="xMidYMid meet">
<metadata>
Created by potrace 1.14, written by Peter Selinger 2001-2017
</metadata>
<g transform="translate(0.000000,100.000000) scale(0.100000,-0.100000)"
fill="#000000" stroke="none">
<path d="M768 933 c-16 -2 -28 -8 -28 -13 0 -5 -9 -7 -19 -5 -11 2 -25 -3 -31
-10 -6 -8 -17 -12 -23 -10 -60 18 -62 17 -123 -34 -6 -5 -17 -5 -24 -1 -14 9
-40 -11 -40 -29 0 -6 -4 -11 -10 -11 -5 0 -10 -8 -10 -17 0 -13 -3 -14 -8 -5
-5 6 -20 11 -34 10 -15 -1 -24 -6 -22 -10 3 -4 12 -5 22 -2 9 3 4 -2 -11 -11
-17 -10 -26 -22 -23 -31 5 -13 -16 -23 -71 -33 -4 0 -2 -6 5 -13 15 -15 16
-32 2 -23 -6 3 -10 0 -10 -7 0 -9 -3 -9 -10 2 -8 13 -12 13 -27 -4 -13 -13
-15 -20 -5 -23 6 -3 12 -10 12 -16 -1 -7 -9 -2 -19 10 -10 12 -21 19 -25 16
-3 -4 -6 -1 -6 4 0 13 -29 11 -38 -3 -4 -5 -14 -10 -22 -12 -34 -8 -54 -42
-24 -42 8 0 12 5 9 10 -3 6 -1 10 4 10 6 0 11 -9 11 -20 0 -26 -46 -46 -66
-29 -11 9 -14 7 -14 -9 0 -12 5 -24 12 -28 6 -4 8 -3 5 3 -3 5 0 10 8 10 19 0
19 -7 1 -21 -13 -9 -13 -15 -2 -34 12 -22 14 -23 29 -7 19 18 19 19 22 -13 2
-16 -5 -27 -21 -34 -18 -9 -22 -16 -18 -35 4 -14 2 -23 -5 -23 -16 0 -51 -38
-51 -55 0 -8 -4 -15 -9 -15 -5 0 -8 -8 -6 -18 2 -9 4 -23 4 -30 1 -7 5 -10 11
-7 6 3 7 -1 4 -9 -3 -9 -1 -16 4 -16 6 0 12 7 14 15 2 10 6 8 14 -9 10 -21 9
-23 -10 -18 -12 3 -18 1 -14 -3 4 -5 3 -14 -2 -20 -8 -9 -6 -14 5 -19 9 -3 13
-2 10 3 -3 5 0 13 6 17 8 4 9 3 5 -4 -4 -7 -3 -12 3 -12 6 0 8 -8 4 -17 -3
-10 -3 -15 2 -11 4 4 14 0 20 -9 10 -14 16 -15 27 -5 11 9 18 7 31 -9 10 -11
22 -17 27 -14 6 3 10 2 10 -3 0 -5 -9 -13 -20 -18 l-21 -9 21 -23 c23 -25 42
-29 34 -8 -8 21 17 32 31 13 19 -27 26 -7 7 21 -9 15 -12 23 -5 19 6 -4 13 -4
16 0 2 5 2 2 1 -4 -5 -18 7 -16 22 5 12 16 13 16 14 0 0 -9 5 -20 11 -24 7 -4
9 0 5 12 -3 11 -1 26 5 34 9 13 10 12 5 -2 -3 -12 -1 -15 10 -11 7 3 14 -1 14
-8 0 -7 3 -9 8 -5 4 4 7 12 7 18 0 6 8 12 18 14 9 1 17 -4 17 -12 0 -9 5 -12
10 -9 6 4 8 11 5 16 -7 10 44 -7 61 -22 8 -7 14 -6 19 1 3 5 -1 10 -10 10 -9
0 -13 5 -10 10 4 6 11 7 17 4 6 -4 8 -2 4 4 -3 6 -2 13 4 17 5 3 10 1 10 -5 0
-8 6 -8 20 0 10 6 23 10 27 9 22 -4 33 3 33 19 -1 16 -2 16 -13 0 -9 -11 -18
-14 -28 -7 -11 7 -11 9 4 9 9 0 17 8 17 18 1 15 3 14 18 -4 l18 -22 22 23 c12
13 22 28 22 35 0 9 4 9 17 -1 9 -8 14 -9 10 -2 -4 6 -1 13 5 16 10 3 8 9 -5
24 -19 22 -14 53 10 53 9 0 13 6 10 15 -9 21 14 31 25 11 10 -18 38 -22 38 -5
0 5 -4 7 -10 4 -5 -3 -10 3 -10 14 0 14 5 19 15 15 8 -4 15 -1 15 5 0 6 -7 11
-16 11 -14 0 -14 1 0 16 18 17 21 34 7 34 -5 0 -11 11 -13 25 -5 24 6 32 37
25 5 -1 7 2 3 6 -10 9 12 35 23 28 24 -14 61 17 58 50 0 5 5 13 13 17 10 7 9
9 -4 9 -10 0 -18 -5 -18 -12 0 -6 -2 -9 -5 -6 -3 3 -1 17 5 32 8 22 14 26 31
21 l21 -7 -20 20 c-14 14 -19 29 -16 46 3 21 0 27 -20 32 -15 3 -26 14 -28 27
-2 15 -9 21 -20 19 -11 -2 -18 3 -18 13 0 18 21 20 38 3 9 -9 12 -9 12 0 0 6
-8 15 -17 21 -10 5 -15 13 -11 17 5 4 3 13 -3 21 -9 10 -7 13 6 13 10 0 15 3
11 8 -11 10 -30 9 -39 -3 -5 -6 -7 -1 -4 10 2 11 9 19 15 18 7 -2 12 4 12 13
0 8 -4 13 -9 9 -5 -3 -12 -1 -16 5 -3 5 -9 9 -13 9 -4 -1 -19 -4 -34 -6z
m-148 -53 c0 -5 -7 -10 -16 -10 -8 0 -12 5 -9 10 3 6 10 10 16 10 5 0 9 -4 9
-10z m14 -35 c3 -8 0 -14 -7 -12 -7 1 -11 -4 -9 -11 1 -8 -2 -11 -8 -7 -7 4
-7 12 0 26 13 23 16 24 24 4z m192 -17 c4 -7 4 -10 -1 -6 -4 4 -14 3 -21 -3
-8 -7 -14 -6 -20 2 -4 7 -3 9 4 5 6 -3 13 -2 17 4 8 13 12 13 21 -2z m22 -74
c0 -17 -3 -22 -8 -13 -5 6 -6 18 -3 26 8 19 11 16 11 -13z m-163 -431 c-2 -10
-4 -22 -4 -28 -1 -5 -5 -3 -11 5 -5 9 -5 19 2 27 14 17 17 16 13 -4z m-17 -78
c-6 -13 -15 -22 -21 -18 -5 3 -4 8 3 13 6 4 11 10 11 14 -3 19 0 27 9 21 6 -4
5 -15 -2 -30z m-285 -62 c-7 -2 -19 -2 -25 0 -7 3 -2 5 12 5 14 0 19 -2 13 -5z
m97 -17 c0 -3 -4 -8 -10 -11 -5 -3 -10 -1 -10 4 0 6 5 11 10 11 6 0 10 -2 10
-4z"/>
<path d="M900 920 c0 -5 5 -10 11 -10 5 0 7 5 4 10 -3 6 -8 10 -11 10 -2 0 -4
-4 -4 -10z"/>
<path d="M245 691 c-3 -5 -1 -12 5 -16 5 -3 10 1 10 9 0 18 -6 21 -15 7z"/>
<path d="M735 330 c-9 -15 -1 -23 21 -18 15 3 16 4 1 16 -11 9 -17 10 -22 2z"/>
<path d="M110 135 c7 -8 21 -15 31 -15 10 0 17 -6 15 -12 -1 -7 -1 -10 1 -5 3
4 11 7 19 7 8 0 14 5 14 10 0 6 -5 10 -11 10 -5 0 -7 6 -3 13 6 10 4 10 -7 0
-16 -15 -49 -17 -49 -3 0 6 -5 10 -11 10 -8 0 -8 -5 1 -15z"/>
<path d="M446 114 c-4 -9 -4 -19 -1 -22 3 -3 5 0 5 8 0 10 4 10 18 -1 15 -12
16 -12 5 2 -7 9 -10 19 -6 22 3 4 2 7 -4 7 -6 0 -14 -7 -17 -16z"/>
<path d="M290 45 c-7 -9 -8 -15 -2 -15 5 0 12 7 16 15 3 8 4 15 2 15 -2 0 -9
-7 -16 -15z"/>
</g>
</svg>
